<svg width="22" height="26" viewBox="0 0 22 26" fill="none" xmlns="http://www.w3.org/2000/svg">
<g clip-path="url(#clip0_318_46)">
<path d="M22 17.6786V1.17857C22 0.525446 21.4746 0 20.8214 0H4.71429C2.11161 0 0 2.11161 0 4.71429V20.4286C0 23.0312 2.11161 25.1429 4.71429 25.1429H20.8214C21.4746 25.1429 22 24.6174 22 23.9643V23.1786C22 22.8103 21.8281 22.4763 21.5629 22.2603C21.3567 21.504 21.3567 19.3482 21.5629 18.592C21.8281 18.3808 22 18.0469 22 17.6786ZM6.28571 6.58036C6.28571 6.4183 6.4183 6.28571 6.58036 6.28571H16.9911C17.1531 6.28571 17.2857 6.4183 17.2857 6.58036V7.5625C17.2857 7.72455 17.1531 7.85714 16.9911 7.85714H6.58036C6.4183 7.85714 6.28571 7.72455 6.28571 7.5625V6.58036ZM6.28571 9.72321C6.28571 9.56116 6.4183 9.42857 6.58036 9.42857H16.9911C17.1531 9.42857 17.2857 9.56116 17.2857 9.72321V10.7054C17.2857 10.8674 17.1531 11 16.9911 11H6.58036C6.4183 11 6.28571 10.8674 6.28571 10.7054V9.72321ZM18.7295 22H4.71429C3.84509 22 3.14286 21.2978 3.14286 20.4286C3.14286 19.5643 3.85 18.8571 4.71429 18.8571H18.7295C18.6362 19.6969 18.6362 21.1603 18.7295 22Z" fill="url(#paint0_linear_318_46)"/>
</g>
<defs>
<linearGradient id="paint0_linear_318_46" x1="11" y1="0" x2="11" y2="25.1429" gradientUnits="userSpaceOnUse">
<stop stop-color="#A839FF"/>
<stop offset="1" stop-color="#701CDA"/>
</linearGradient>
<clipPath id="clip0_318_46">
<rect width="22" height="25.1429" fill="white"/>
</clipPath>
</defs>
</svg>
