<svg width="22" height="23" viewBox="0 0 22 23" fill="none" xmlns="http://www.w3.org/2000/svg">
<g clip-path="url(#clip0_318_44)">
<path d="M11 0.353271C4.92472 0.353271 0 5.25661 0 11.3055C0 17.3544 4.92472 22.2578 11 22.2578C17.0753 22.2578 22 17.3544 22 11.3055C22 5.25661 17.0753 0.353271 11 0.353271ZM14.65 16.1457C14.477 16.3171 14.2956 16.4968 14.1483 16.6439C14.0157 16.7764 13.9221 16.9398 13.8746 17.1168C13.8077 17.3668 13.7535 17.6194 13.6631 17.8619L12.8917 19.9309C12.2814 20.0634 11.6498 20.138 11 20.138V18.9288C11.075 18.3715 10.6611 17.3275 9.99625 16.6655C9.73012 16.4005 9.58064 16.0411 9.58064 15.6661V14.2525C9.58064 13.7384 9.30254 13.2659 8.85056 13.0173C8.21318 12.6662 7.30657 12.1755 6.6856 11.8642C6.17641 11.6089 5.70536 11.2839 5.28177 10.9037L5.24629 10.8719C4.94337 10.5996 4.67443 10.2921 4.44524 9.95593C4.02919 9.34781 3.35145 8.34754 2.91101 7.69747C3.81895 5.68808 5.4552 4.07439 7.48843 3.19777L8.55339 3.72816C9.02532 3.9631 9.58064 3.62173 9.58064 3.09619V2.59716C9.93504 2.54019 10.2956 2.50398 10.6625 2.49029L11.9177 3.74008C12.1949 4.01609 12.1949 4.46346 11.9177 4.73947L11.7097 4.94615L11.251 5.40279C11.1127 5.54058 11.1127 5.76448 11.251 5.90227L11.4591 6.10939C11.5975 6.24718 11.5975 6.47108 11.4591 6.60886L11.1042 6.96216C11.0376 7.02837 10.9473 7.06554 10.8532 7.0655H10.4544C10.3622 7.0655 10.2735 7.10127 10.2069 7.16575L9.76694 7.59192C9.713 7.64421 9.67715 7.71222 9.66455 7.78611C9.65196 7.86001 9.66327 7.93599 9.69685 8.00307L10.3883 9.38049C10.5063 9.61544 10.3347 9.89189 10.0712 9.89189H9.82105C9.73544 9.89189 9.65294 9.86098 9.58863 9.80533L9.17702 9.44939C9.08387 9.36893 8.9713 9.314 8.85036 9.29C8.72943 9.26599 8.60431 9.27374 8.4873 9.31248L7.10476 9.77133C6.99921 9.80637 6.90741 9.8736 6.84237 9.96348C6.77733 10.0534 6.74235 10.1613 6.74238 10.2721C6.74238 10.4722 6.85593 10.6546 7.03556 10.7442L7.52702 10.9889C7.94439 11.1969 8.4048 11.3051 8.87141 11.3051C9.33802 11.3051 9.87339 12.5103 10.2908 12.7183H13.2515C13.628 12.7183 13.9886 12.8671 14.2552 13.1321L14.8624 13.7367C15.1161 13.9893 15.2586 14.332 15.2585 14.6892C15.2584 14.96 15.2046 15.228 15.1002 15.4779C14.9957 15.7279 14.8427 15.9548 14.65 16.1457V16.1457ZM18.496 12.1115C18.2392 12.0475 18.0152 11.8907 17.8683 11.6712L17.0708 10.4801C16.9542 10.3061 16.8919 10.1016 16.8919 9.89233C16.8919 9.6831 16.9542 9.47855 17.0708 9.30453L17.9398 8.00704C18.0427 7.8538 18.1837 7.72926 18.3496 7.64712L18.9253 7.36051C19.525 8.54936 19.871 9.88659 19.871 11.3055C19.871 11.6884 19.8381 12.0634 19.7902 12.4334L18.496 12.1115Z" fill="url(#paint0_linear_318_44)"/>
</g>
<defs>
<linearGradient id="paint0_linear_318_44" x1="11" y1="0.353271" x2="11" y2="22.2578" gradientUnits="userSpaceOnUse">
<stop stop-color="#A839FF"/>
<stop offset="1" stop-color="#701CDA"/>
</linearGradient>
<clipPath id="clip0_318_44">
<rect width="22" height="22.6111" fill="white"/>
</clipPath>
</defs>
</svg>
