<svg width="392" height="36" viewBox="0 0 392 36" fill="none" xmlns="http://www.w3.org/2000/svg">
<path d="M19.4841 3.51201C19.3881 4.59201 19.3161 5.63601 19.2681 6.64401C19.2441 7.65201 19.2321 8.43201 19.2321 8.98401C19.2321 9.51201 19.2441 10.016 19.2681 10.496C19.2921 10.976 19.3161 11.384 19.3401 11.72H18.5121C18.2001 9.84801 17.7681 8.38401 17.2161 7.32801C16.6641 6.24801 15.9801 5.48001 15.1641 5.02401C14.3721 4.56801 13.4241 4.34001 12.3201 4.34001H11.1321C10.4361 4.34001 9.90812 4.40001 9.54812 4.52001C9.18812 4.64001 8.94812 4.88001 8.82812 5.24001C8.70812 5.60001 8.64812 6.15201 8.64812 6.89601V24.968C8.64812 25.904 8.74412 26.6 8.93612 27.056C9.12812 27.512 9.50012 27.812 10.0521 27.956C10.6041 28.1 11.4201 28.184 12.5001 28.208V29C11.7561 28.976 10.7961 28.952 9.62012 28.928C8.44412 28.904 7.20812 28.892 5.91212 28.892C4.88012 28.892 3.87212 28.904 2.88812 28.928C1.90412 28.952 1.01612 28.976 0.224121 29V28.28C0.992121 28.232 1.56812 28.136 1.95212 27.992C2.33612 27.848 2.58812 27.56 2.70812 27.128C2.85212 26.696 2.92412 26.048 2.92412 25.184V7.32801C2.92412 6.44001 2.85212 5.79201 2.70812 5.38401C2.58812 4.95201 2.32412 4.66401 1.91612 4.52001C1.53212 4.35201 0.968121 4.25601 0.224121 4.23201V3.51201C1.20812 3.53601 2.25212 3.56001 3.35612 3.58401C4.46012 3.58401 5.55212 3.59601 6.63212 3.62001C7.71212 3.62001 8.72012 3.62001 9.65612 3.62001C10.5921 3.62001 11.3601 3.62001 11.9601 3.62001C13.0641 3.62001 14.3121 3.62001 15.7041 3.62001C17.1201 3.59601 18.3801 3.56001 19.4841 3.51201ZM14.1201 15.968C14.1201 15.968 14.1201 16.088 14.1201 16.328C14.1201 16.568 14.1201 16.688 14.1201 16.688H7.56812C7.56812 16.688 7.56812 16.568 7.56812 16.328C7.56812 16.088 7.56812 15.968 7.56812 15.968H14.1201ZM15.0201 11.216C14.9241 12.584 14.8761 13.628 14.8761 14.348C14.9001 15.068 14.9121 15.728 14.9121 16.328C14.9121 16.928 14.9241 17.588 14.9481 18.308C14.9721 19.028 15.0321 20.072 15.1281 21.44H14.3001C14.1561 20.6 13.9281 19.82 13.6161 19.1C13.3041 18.38 12.8481 17.804 12.2481 17.372C11.6481 16.916 10.8681 16.688 9.90812 16.688V15.968C10.6281 15.968 11.2281 15.824 11.7081 15.536C12.2121 15.224 12.6321 14.828 12.9681 14.348C13.3041 13.844 13.5681 13.316 13.7601 12.764C13.9521 12.212 14.0961 11.696 14.1921 11.216H15.0201Z" fill="#E0E0E0"/>
<path d="M29.5427 9.88401C31.6547 9.88401 33.3107 10.508 34.5107 11.756C35.7107 13.004 36.3107 15.044 36.3107 17.876H24.4667L24.3947 17.192H31.7747C31.7987 16.016 31.7267 14.936 31.5587 13.952C31.3907 12.944 31.1267 12.14 30.7667 11.54C30.4067 10.94 29.9267 10.64 29.3267 10.64C28.4867 10.64 27.7667 11.168 27.1667 12.224C26.5907 13.28 26.2427 15.032 26.1227 17.48L26.2307 17.696C26.2067 17.984 26.1827 18.284 26.1587 18.596C26.1587 18.908 26.1587 19.232 26.1587 19.568C26.1587 21.224 26.3867 22.568 26.8427 23.6C27.3227 24.632 27.9227 25.388 28.6427 25.868C29.3627 26.324 30.0947 26.552 30.8387 26.552C31.3427 26.552 31.8587 26.48 32.3867 26.336C32.9387 26.168 33.4907 25.88 34.0427 25.472C34.5947 25.04 35.1107 24.44 35.5907 23.672L36.2387 23.888C35.9507 24.8 35.4947 25.688 34.8707 26.552C34.2467 27.416 33.4547 28.124 32.4947 28.676C31.5347 29.228 30.3827 29.504 29.0387 29.504C27.4067 29.504 25.9667 29.156 24.7187 28.46C23.4707 27.764 22.4867 26.708 21.7667 25.292C21.0707 23.876 20.7227 22.076 20.7227 19.892C20.7227 17.66 21.0947 15.8 21.8387 14.312C22.6067 12.824 23.6507 11.72 24.9707 11C26.3147 10.256 27.8387 9.88401 29.5427 9.88401Z" fill="#E0E0E0"/>
<path d="M45.7394 0.812012V25.652C45.7394 26.66 45.9074 27.344 46.2434 27.704C46.6034 28.064 47.2034 28.244 48.0434 28.244V29C47.5874 28.976 46.9034 28.952 45.9914 28.928C45.0794 28.88 44.1554 28.856 43.2194 28.856C42.2834 28.856 41.3354 28.88 40.3754 28.928C39.4394 28.952 38.7314 28.976 38.2514 29V28.244C39.0914 28.244 39.6794 28.064 40.0154 27.704C40.3754 27.344 40.5554 26.66 40.5554 25.652V5.13201C40.5554 4.05201 40.3874 3.26001 40.0514 2.75601C39.7394 2.22801 39.1394 1.96401 38.2514 1.96401V1.20801C39.0194 1.28001 39.7634 1.31601 40.4834 1.31601C41.4674 1.31601 42.4034 1.28001 43.2914 1.20801C44.1794 1.11201 44.9954 0.980012 45.7394 0.812012Z" fill="#E0E0E0"/>
<path d="M54.2551 1.10001C55.2631 1.10001 56.0551 1.35201 56.6311 1.85601C57.2311 2.33601 57.5311 3.00801 57.5311 3.87201C57.5311 4.73601 57.2311 5.42001 56.6311 5.92401C56.0551 6.40401 55.2631 6.64401 54.2551 6.64401C53.2471 6.64401 52.4431 6.40401 51.8431 5.92401C51.2671 5.42001 50.9791 4.73601 50.9791 3.87201C50.9791 3.00801 51.2671 2.33601 51.8431 1.85601C52.4431 1.35201 53.2471 1.10001 54.2551 1.10001ZM57.0631 9.99201V25.652C57.0631 26.66 57.2311 27.344 57.5671 27.704C57.9271 28.064 58.5271 28.244 59.3671 28.244V29C58.9351 28.976 58.2631 28.952 57.3511 28.928C56.4391 28.88 55.5151 28.856 54.5791 28.856C53.6431 28.856 52.6951 28.88 51.7351 28.928C50.7751 28.952 50.0551 28.976 49.5751 29V28.244C50.4151 28.244 51.0031 28.064 51.3391 27.704C51.6991 27.344 51.8791 26.66 51.8791 25.652V14.312C51.8791 13.232 51.7111 12.44 51.3751 11.936C51.0631 11.408 50.4631 11.144 49.5751 11.144V10.388C50.3431 10.46 51.0871 10.496 51.8071 10.496C52.8151 10.496 53.7511 10.46 54.6151 10.388C55.5031 10.292 56.3191 10.16 57.0631 9.99201Z" fill="#E0E0E0"/>
<path d="M68.2745 9.99201V31.952C68.2745 33.08 68.5625 33.824 69.1385 34.184C69.7145 34.568 70.5065 34.76 71.5145 34.76V35.516C70.8905 35.492 70.0265 35.456 68.9225 35.408C67.8425 35.384 66.6905 35.372 65.4665 35.372C64.5785 35.372 63.7025 35.384 62.8385 35.408C61.9985 35.456 61.3625 35.492 60.9305 35.516V34.76C61.7225 34.76 62.2745 34.592 62.5865 34.256C62.9225 33.92 63.0905 33.272 63.0905 32.312V14.312C63.0905 13.232 62.9225 12.44 62.5865 11.936C62.2505 11.408 61.6505 11.144 60.7865 11.144V10.388C61.5545 10.46 62.2985 10.496 63.0185 10.496C64.0025 10.496 64.9385 10.46 65.8265 10.388C66.7145 10.292 67.5305 10.16 68.2745 9.99201ZM73.8545 9.88401C75.0785 9.88401 76.1705 10.22 77.1305 10.892C78.0905 11.54 78.8585 12.536 79.4345 13.88C80.0105 15.2 80.2985 16.856 80.2985 18.848C80.2985 20.6 80.0945 22.136 79.6865 23.456C79.3025 24.776 78.7385 25.892 77.9945 26.804C77.2745 27.692 76.3985 28.364 75.3665 28.82C74.3585 29.276 73.2185 29.504 71.9465 29.504C71.0105 29.504 70.1585 29.336 69.3905 29C68.6225 28.688 68.0345 28.232 67.6265 27.632L67.9865 27.164C68.2265 27.596 68.5625 27.932 68.9945 28.172C69.4505 28.412 69.9665 28.532 70.5425 28.532C71.6225 28.532 72.4745 28.172 73.0985 27.452C73.7225 26.708 74.1665 25.676 74.4305 24.356C74.7185 23.012 74.8625 21.416 74.8625 19.568C74.8625 17.504 74.7305 15.884 74.4665 14.708C74.2025 13.532 73.8425 12.692 73.3865 12.188C72.9305 11.684 72.3785 11.432 71.7305 11.432C70.8665 11.432 70.0745 11.768 69.3545 12.44C68.6585 13.112 68.2625 14.072 68.1665 15.32L67.9865 14.06C68.4185 12.692 69.1505 11.66 70.1825 10.964C71.2385 10.244 72.4625 9.88401 73.8545 9.88401Z" fill="#E0E0E0"/>
<path d="M91.8045 9.88401C93.9165 9.88401 95.5725 10.508 96.7725 11.756C97.9725 13.004 98.5725 15.044 98.5725 17.876H86.7285L86.6565 17.192H94.0365C94.0605 16.016 93.9885 14.936 93.8205 13.952C93.6525 12.944 93.3885 12.14 93.0285 11.54C92.6685 10.94 92.1885 10.64 91.5885 10.64C90.7485 10.64 90.0285 11.168 89.4285 12.224C88.8525 13.28 88.5045 15.032 88.3845 17.48L88.4925 17.696C88.4685 17.984 88.4445 18.284 88.4205 18.596C88.4205 18.908 88.4205 19.232 88.4205 19.568C88.4205 21.224 88.6485 22.568 89.1045 23.6C89.5845 24.632 90.1845 25.388 90.9045 25.868C91.6245 26.324 92.3565 26.552 93.1005 26.552C93.6045 26.552 94.1205 26.48 94.6485 26.336C95.2005 26.168 95.7525 25.88 96.3045 25.472C96.8565 25.04 97.3725 24.44 97.8525 23.672L98.5005 23.888C98.2125 24.8 97.7565 25.688 97.1325 26.552C96.5085 27.416 95.7165 28.124 94.7565 28.676C93.7965 29.228 92.6445 29.504 91.3005 29.504C89.6685 29.504 88.2285 29.156 86.9805 28.46C85.7325 27.764 84.7485 26.708 84.0285 25.292C83.3325 23.876 82.9845 22.076 82.9845 19.892C82.9845 17.66 83.3565 15.8 84.1005 14.312C84.8685 12.824 85.9125 11.72 87.2325 11C88.5765 10.256 90.1005 9.88401 91.8045 9.88401Z" fill="#E0E0E0"/>
<path d="M131.232 3.51201V4.23201C130.704 4.42401 130.14 4.84401 129.54 5.49201C128.964 6.14001 128.424 7.14801 127.92 8.51601L120.324 29.072C120.132 29.048 119.928 29.036 119.712 29.036C119.496 29.036 119.28 29.036 119.064 29.036C118.872 29.036 118.668 29.036 118.452 29.036C118.236 29.036 118.032 29.048 117.84 29.072L108.66 6.53601C108.324 5.67201 107.952 5.08401 107.544 4.77201C107.136 4.43601 106.752 4.25601 106.392 4.23201V3.51201C107.112 3.53601 107.952 3.56001 108.912 3.58401C109.896 3.60801 110.88 3.62001 111.864 3.62001C112.968 3.62001 114 3.60801 114.96 3.58401C115.944 3.56001 116.736 3.53601 117.336 3.51201V4.23201C116.568 4.25601 115.968 4.35201 115.536 4.52001C115.104 4.66401 114.864 4.95201 114.816 5.38401C114.768 5.79201 114.912 6.41601 115.248 7.25601L121.8 23.924L121.044 24.824L126.012 11.432C126.66 9.63201 126.996 8.21601 127.02 7.18401C127.044 6.15201 126.792 5.40801 126.264 4.95201C125.736 4.49601 124.98 4.25601 123.996 4.23201V3.51201C124.812 3.53601 125.58 3.56001 126.3 3.58401C127.02 3.60801 127.752 3.62001 128.496 3.62001C129.024 3.62001 129.516 3.60801 129.972 3.58401C130.452 3.56001 130.872 3.53601 131.232 3.51201Z" fill="#E0E0E0"/>
<path d="M134.102 29.252C133.022 29.252 132.122 29.048 131.402 28.64C130.682 28.232 130.154 27.692 129.818 27.02C129.482 26.324 129.314 25.568 129.314 24.752C129.314 23.72 129.542 22.88 129.998 22.232C130.478 21.584 131.09 21.056 131.834 20.648C132.578 20.24 133.358 19.904 134.174 19.64C135.014 19.376 135.806 19.124 136.55 18.884C137.318 18.62 137.93 18.32 138.386 17.984C138.866 17.624 139.106 17.168 139.106 16.616V13.808C139.106 13.184 138.998 12.632 138.782 12.152C138.59 11.648 138.278 11.264 137.846 11C137.438 10.736 136.898 10.604 136.226 10.604C135.746 10.604 135.266 10.676 134.786 10.82C134.306 10.94 133.91 11.156 133.598 11.468C134.27 11.708 134.786 12.08 135.146 12.584C135.53 13.064 135.722 13.616 135.722 14.24C135.722 15.056 135.434 15.704 134.858 16.184C134.306 16.664 133.646 16.904 132.878 16.904C132.014 16.904 131.354 16.64 130.898 16.112C130.466 15.56 130.25 14.9 130.25 14.132C130.25 13.436 130.418 12.86 130.754 12.404C131.114 11.948 131.606 11.516 132.23 11.108C132.902 10.724 133.706 10.424 134.642 10.208C135.602 9.99201 136.634 9.88401 137.738 9.88401C138.842 9.88401 139.838 10.004 140.726 10.244C141.614 10.46 142.358 10.868 142.958 11.468C143.51 12.02 143.87 12.704 144.038 13.52C144.206 14.312 144.29 15.32 144.29 16.544V26.336C144.29 26.936 144.35 27.356 144.47 27.596C144.59 27.812 144.794 27.92 145.082 27.92C145.298 27.92 145.502 27.86 145.694 27.74C145.91 27.62 146.138 27.476 146.378 27.308L146.738 27.92C146.234 28.352 145.646 28.688 144.974 28.928C144.326 29.144 143.594 29.252 142.778 29.252C141.89 29.252 141.182 29.132 140.654 28.892C140.126 28.628 139.742 28.28 139.502 27.848C139.286 27.416 139.178 26.912 139.178 26.336C138.602 27.248 137.906 27.968 137.09 28.496C136.274 29 135.278 29.252 134.102 29.252ZM136.658 26.948C137.138 26.948 137.57 26.84 137.954 26.624C138.362 26.384 138.746 26 139.106 25.472V18.092C138.89 18.452 138.59 18.776 138.206 19.064C137.822 19.352 137.414 19.652 136.982 19.964C136.55 20.252 136.13 20.576 135.722 20.936C135.338 21.296 135.026 21.74 134.786 22.268C134.546 22.796 134.426 23.432 134.426 24.176C134.426 25.112 134.63 25.808 135.038 26.264C135.446 26.72 135.986 26.948 136.658 26.948Z" fill="#E0E0E0"/>
<path d="M155.11 0.812012V25.652C155.11 26.66 155.278 27.344 155.614 27.704C155.974 28.064 156.574 28.244 157.414 28.244V29C156.958 28.976 156.274 28.952 155.362 28.928C154.45 28.88 153.526 28.856 152.59 28.856C151.654 28.856 150.706 28.88 149.746 28.928C148.81 28.952 148.102 28.976 147.622 29V28.244C148.462 28.244 149.05 28.064 149.386 27.704C149.746 27.344 149.926 26.66 149.926 25.652V5.13201C149.926 4.05201 149.758 3.26001 149.422 2.75601C149.11 2.22801 148.51 1.96401 147.622 1.96401V1.20801C148.39 1.28001 149.134 1.31601 149.854 1.31601C150.838 1.31601 151.774 1.28001 152.662 1.20801C153.55 1.11201 154.366 0.980012 155.11 0.812012Z" fill="#E0E0E0"/>
<path d="M167.883 9.88401C169.995 9.88401 171.651 10.508 172.851 11.756C174.051 13.004 174.651 15.044 174.651 17.876H162.807L162.735 17.192H170.115C170.139 16.016 170.067 14.936 169.899 13.952C169.731 12.944 169.467 12.14 169.107 11.54C168.747 10.94 168.267 10.64 167.667 10.64C166.827 10.64 166.107 11.168 165.507 12.224C164.931 13.28 164.583 15.032 164.463 17.48L164.571 17.696C164.547 17.984 164.523 18.284 164.499 18.596C164.499 18.908 164.499 19.232 164.499 19.568C164.499 21.224 164.727 22.568 165.183 23.6C165.663 24.632 166.263 25.388 166.983 25.868C167.703 26.324 168.435 26.552 169.179 26.552C169.683 26.552 170.199 26.48 170.727 26.336C171.279 26.168 171.831 25.88 172.383 25.472C172.935 25.04 173.451 24.44 173.931 23.672L174.579 23.888C174.291 24.8 173.835 25.688 173.211 26.552C172.587 27.416 171.795 28.124 170.835 28.676C169.875 29.228 168.723 29.504 167.379 29.504C165.747 29.504 164.307 29.156 163.059 28.46C161.811 27.764 160.827 26.708 160.107 25.292C159.411 23.876 159.063 22.076 159.063 19.892C159.063 17.66 159.435 15.8 160.179 14.312C160.947 12.824 161.991 11.72 163.311 11C164.655 10.256 166.179 9.88401 167.883 9.88401Z" fill="#E0E0E0"/>
<path d="M189.916 9.88401C190.924 9.88401 191.74 10.016 192.364 10.28C193.012 10.52 193.516 10.856 193.876 11.288C194.26 11.744 194.536 12.332 194.704 13.052C194.896 13.772 194.992 14.744 194.992 15.968V25.652C194.992 26.66 195.16 27.344 195.496 27.704C195.856 28.064 196.456 28.244 197.296 28.244V29C196.84 28.976 196.156 28.952 195.244 28.928C194.332 28.88 193.432 28.856 192.544 28.856C191.632 28.856 190.732 28.88 189.844 28.928C188.98 28.952 188.32 28.976 187.864 29V28.244C188.584 28.244 189.088 28.064 189.376 27.704C189.664 27.344 189.808 26.66 189.808 25.652V14.456C189.808 13.856 189.748 13.34 189.628 12.908C189.508 12.452 189.292 12.104 188.98 11.864C188.668 11.6 188.2 11.468 187.576 11.468C186.928 11.468 186.328 11.648 185.776 12.008C185.248 12.368 184.816 12.872 184.48 13.52C184.168 14.144 184.012 14.852 184.012 15.644V25.652C184.012 26.66 184.156 27.344 184.444 27.704C184.756 28.064 185.26 28.244 185.956 28.244V29C185.524 28.976 184.888 28.952 184.048 28.928C183.232 28.88 182.38 28.856 181.492 28.856C180.58 28.856 179.644 28.88 178.684 28.928C177.724 28.952 177.004 28.976 176.524 29V28.244C177.364 28.244 177.952 28.064 178.288 27.704C178.648 27.344 178.828 26.66 178.828 25.652V14.312C178.828 13.232 178.66 12.44 178.324 11.936C178.012 11.408 177.412 11.144 176.524 11.144V10.388C177.292 10.46 178.036 10.496 178.756 10.496C179.764 10.496 180.7 10.46 181.564 10.388C182.452 10.292 183.268 10.16 184.012 9.99201V13.232C184.612 12.008 185.428 11.144 186.46 10.64C187.492 10.136 188.644 9.88401 189.916 9.88401Z" fill="#E0E0E0"/>
<path d="M205.946 4.48401V10.388H210.194V11.108H205.946V25.652C205.946 26.372 206.078 26.888 206.342 27.2C206.606 27.488 207.002 27.632 207.53 27.632C207.962 27.632 208.394 27.476 208.826 27.164C209.258 26.828 209.642 26.264 209.978 25.472L210.59 25.796C210.206 26.876 209.618 27.764 208.826 28.46C208.058 29.156 207.002 29.504 205.658 29.504C204.866 29.504 204.17 29.396 203.57 29.18C202.97 28.988 202.466 28.688 202.058 28.28C201.53 27.752 201.182 27.104 201.014 26.336C200.846 25.544 200.762 24.524 200.762 23.276V11.108H197.738V10.388H200.762V5.63601C201.77 5.63601 202.694 5.55201 203.534 5.38401C204.398 5.19201 205.202 4.89201 205.946 4.48401Z" fill="#E0E0E0"/>
<path d="M215.974 1.10001C216.982 1.10001 217.774 1.35201 218.35 1.85601C218.95 2.33601 219.25 3.00801 219.25 3.87201C219.25 4.73601 218.95 5.42001 218.35 5.92401C217.774 6.40401 216.982 6.64401 215.974 6.64401C214.966 6.64401 214.162 6.40401 213.562 5.92401C212.986 5.42001 212.698 4.73601 212.698 3.87201C212.698 3.00801 212.986 2.33601 213.562 1.85601C214.162 1.35201 214.966 1.10001 215.974 1.10001ZM218.782 9.99201V25.652C218.782 26.66 218.95 27.344 219.286 27.704C219.646 28.064 220.246 28.244 221.086 28.244V29C220.654 28.976 219.982 28.952 219.07 28.928C218.158 28.88 217.234 28.856 216.298 28.856C215.362 28.856 214.414 28.88 213.454 28.928C212.494 28.952 211.774 28.976 211.294 29V28.244C212.134 28.244 212.722 28.064 213.058 27.704C213.418 27.344 213.598 26.66 213.598 25.652V14.312C213.598 13.232 213.43 12.44 213.094 11.936C212.782 11.408 212.182 11.144 211.294 11.144V10.388C212.062 10.46 212.806 10.496 213.526 10.496C214.534 10.496 215.47 10.46 216.334 10.388C217.222 10.292 218.038 10.16 218.782 9.99201Z" fill="#E0E0E0"/>
<path d="M235.717 9.88401C236.725 9.88401 237.541 10.016 238.165 10.28C238.789 10.52 239.293 10.856 239.677 11.288C240.061 11.744 240.337 12.344 240.505 13.088C240.673 13.808 240.757 14.768 240.757 15.968V25.652C240.757 26.66 240.913 27.344 241.225 27.704C241.537 28.064 242.077 28.244 242.845 28.244V29C242.413 28.976 241.753 28.952 240.865 28.928C240.001 28.88 239.149 28.856 238.309 28.856C237.445 28.856 236.593 28.88 235.753 28.928C234.913 28.952 234.277 28.976 233.845 29V28.244C234.493 28.244 234.937 28.064 235.177 27.704C235.441 27.344 235.573 26.66 235.573 25.652V14.456C235.573 13.856 235.525 13.34 235.429 12.908C235.333 12.452 235.141 12.104 234.853 11.864C234.589 11.6 234.181 11.468 233.629 11.468C233.005 11.468 232.429 11.648 231.901 12.008C231.373 12.368 230.941 12.872 230.605 13.52C230.293 14.144 230.137 14.852 230.137 15.644V25.652C230.137 26.66 230.269 27.344 230.533 27.704C230.797 28.064 231.241 28.244 231.865 28.244V29C231.481 28.976 230.881 28.952 230.065 28.928C229.273 28.88 228.457 28.856 227.617 28.856C226.705 28.856 225.769 28.88 224.809 28.928C223.849 28.952 223.129 28.976 222.649 29V28.244C223.489 28.244 224.077 28.064 224.413 27.704C224.773 27.344 224.953 26.66 224.953 25.652V14.312C224.953 13.232 224.785 12.44 224.449 11.936C224.137 11.408 223.537 11.144 222.649 11.144V10.388C223.417 10.46 224.161 10.496 224.881 10.496C225.889 10.496 226.825 10.46 227.689 10.388C228.577 10.292 229.393 10.16 230.137 9.99201V13.232C230.713 12.032 231.493 11.18 232.477 10.676C233.461 10.148 234.541 9.88401 235.717 9.88401ZM246.553 9.88401C247.561 9.88401 248.377 10.016 249.001 10.28C249.625 10.52 250.129 10.856 250.513 11.288C250.897 11.744 251.173 12.344 251.341 13.088C251.509 13.808 251.593 14.768 251.593 15.968V25.652C251.593 26.66 251.761 27.344 252.097 27.704C252.457 28.064 253.057 28.244 253.897 28.244V29C253.441 28.976 252.757 28.952 251.845 28.928C250.933 28.88 250.033 28.856 249.145 28.856C248.281 28.856 247.429 28.88 246.589 28.928C245.749 28.952 245.113 28.976 244.681 29V28.244C245.329 28.244 245.773 28.064 246.013 27.704C246.277 27.344 246.409 26.66 246.409 25.652V14.456C246.409 13.856 246.349 13.34 246.229 12.908C246.133 12.452 245.929 12.104 245.617 11.864C245.329 11.6 244.873 11.468 244.249 11.468C243.625 11.468 243.049 11.66 242.521 12.044C241.993 12.428 241.561 12.944 241.225 13.592C240.913 14.24 240.745 14.96 240.721 15.752L240.541 13.556C241.189 12.116 242.041 11.144 243.097 10.64C244.177 10.136 245.329 9.88401 246.553 9.88401Z" fill="#E0E0E0"/>
<path d="M281.353 0.812012V25.04C281.353 26.12 281.521 26.924 281.857 27.452C282.193 27.956 282.793 28.208 283.657 28.208V28.964C282.913 28.892 282.169 28.856 281.425 28.856C280.417 28.856 279.469 28.892 278.581 28.964C277.717 29.036 276.913 29.168 276.169 29.36V5.13201C276.169 4.05201 276.001 3.26001 275.665 2.75601C275.353 2.22801 274.753 1.96401 273.865 1.96401V1.20801C274.633 1.28001 275.377 1.31601 276.097 1.31601C277.081 1.31601 278.017 1.28001 278.905 1.20801C279.793 1.11201 280.609 0.980012 281.353 0.812012ZM272.173 9.88401C273.229 9.88401 274.153 10.064 274.945 10.424C275.761 10.76 276.397 11.336 276.853 12.152L276.421 12.548C276.109 11.972 275.689 11.564 275.161 11.324C274.657 11.06 274.117 10.928 273.541 10.928C272.317 10.928 271.345 11.648 270.625 13.088C269.905 14.504 269.557 16.7 269.581 19.676C269.581 21.716 269.713 23.348 269.977 24.572C270.265 25.772 270.661 26.636 271.165 27.164C271.693 27.692 272.293 27.956 272.965 27.956C273.781 27.956 274.513 27.632 275.161 26.984C275.809 26.336 276.157 25.46 276.205 24.356L276.385 25.616C276.025 26.888 275.437 27.86 274.621 28.532C273.829 29.18 272.785 29.504 271.489 29.504C270.073 29.504 268.801 29.156 267.673 28.46C266.569 27.764 265.705 26.696 265.081 25.256C264.457 23.792 264.145 21.908 264.145 19.604C264.145 17.42 264.493 15.62 265.189 14.204C265.885 12.764 266.833 11.684 268.033 10.964C269.257 10.244 270.637 9.88401 272.173 9.88401Z" fill="#E0E0E0"/>
<path d="M290.125 29.252C289.045 29.252 288.145 29.048 287.425 28.64C286.705 28.232 286.177 27.692 285.841 27.02C285.505 26.324 285.337 25.568 285.337 24.752C285.337 23.72 285.565 22.88 286.021 22.232C286.501 21.584 287.113 21.056 287.857 20.648C288.601 20.24 289.381 19.904 290.197 19.64C291.037 19.376 291.829 19.124 292.573 18.884C293.341 18.62 293.953 18.32 294.409 17.984C294.889 17.624 295.129 17.168 295.129 16.616V13.808C295.129 13.184 295.021 12.632 294.805 12.152C294.613 11.648 294.301 11.264 293.869 11C293.461 10.736 292.921 10.604 292.249 10.604C291.769 10.604 291.289 10.676 290.809 10.82C290.329 10.94 289.933 11.156 289.621 11.468C290.293 11.708 290.809 12.08 291.169 12.584C291.553 13.064 291.745 13.616 291.745 14.24C291.745 15.056 291.457 15.704 290.881 16.184C290.329 16.664 289.669 16.904 288.901 16.904C288.037 16.904 287.377 16.64 286.921 16.112C286.489 15.56 286.273 14.9 286.273 14.132C286.273 13.436 286.441 12.86 286.777 12.404C287.137 11.948 287.629 11.516 288.253 11.108C288.925 10.724 289.729 10.424 290.665 10.208C291.625 9.99201 292.657 9.88401 293.761 9.88401C294.865 9.88401 295.861 10.004 296.749 10.244C297.637 10.46 298.381 10.868 298.981 11.468C299.533 12.02 299.893 12.704 300.061 13.52C300.229 14.312 300.313 15.32 300.313 16.544V26.336C300.313 26.936 300.373 27.356 300.493 27.596C300.613 27.812 300.817 27.92 301.105 27.92C301.321 27.92 301.525 27.86 301.717 27.74C301.933 27.62 302.161 27.476 302.401 27.308L302.761 27.92C302.257 28.352 301.669 28.688 300.997 28.928C300.349 29.144 299.617 29.252 298.801 29.252C297.913 29.252 297.205 29.132 296.677 28.892C296.149 28.628 295.765 28.28 295.525 27.848C295.309 27.416 295.201 26.912 295.201 26.336C294.625 27.248 293.929 27.968 293.113 28.496C292.297 29 291.301 29.252 290.125 29.252ZM292.681 26.948C293.161 26.948 293.593 26.84 293.977 26.624C294.385 26.384 294.769 26 295.129 25.472V18.092C294.913 18.452 294.613 18.776 294.229 19.064C293.845 19.352 293.437 19.652 293.005 19.964C292.573 20.252 292.153 20.576 291.745 20.936C291.361 21.296 291.049 21.74 290.809 22.268C290.569 22.796 290.449 23.432 290.449 24.176C290.449 25.112 290.653 25.808 291.061 26.264C291.469 26.72 292.009 26.948 292.681 26.948Z" fill="#E0E0E0"/>
<path d="M321.376 3.04401C322.792 3.04401 323.884 3.20001 324.652 3.51201C325.42 3.80001 326.08 4.11201 326.632 4.44801C326.92 4.61601 327.148 4.74801 327.316 4.84401C327.508 4.91601 327.688 4.95201 327.856 4.95201C328.096 4.95201 328.264 4.82001 328.36 4.55601C328.48 4.29201 328.576 3.89601 328.648 3.36801H329.476C329.452 3.82401 329.416 4.37601 329.368 5.02401C329.344 5.64801 329.32 6.47601 329.296 7.50801C329.296 8.54001 329.296 9.89601 329.296 11.576H328.468C328.372 10.328 328.084 9.11601 327.604 7.94001C327.124 6.76401 326.44 5.80401 325.552 5.06001C324.688 4.29201 323.62 3.90801 322.348 3.90801C321.196 3.90801 320.248 4.23201 319.504 4.88001C318.76 5.52801 318.388 6.42801 318.388 7.58001C318.388 8.54001 318.628 9.36801 319.108 10.064C319.588 10.736 320.284 11.396 321.196 12.044C322.132 12.692 323.26 13.472 324.58 14.384C325.732 15.128 326.764 15.872 327.676 16.616C328.588 17.36 329.32 18.2 329.872 19.136C330.424 20.072 330.7 21.188 330.7 22.484C330.7 24.068 330.28 25.376 329.44 26.408C328.624 27.44 327.544 28.22 326.2 28.748C324.856 29.252 323.38 29.504 321.772 29.504C320.284 29.504 319.096 29.36 318.208 29.072C317.32 28.784 316.576 28.484 315.976 28.172C315.448 27.836 315.04 27.668 314.752 27.668C314.512 27.668 314.332 27.8 314.212 28.064C314.116 28.328 314.032 28.724 313.96 29.252H313.132C313.18 28.676 313.204 28.004 313.204 27.236C313.228 26.468 313.24 25.472 313.24 24.248C313.264 23 313.276 21.428 313.276 19.532H314.104C314.2 21.116 314.464 22.604 314.896 23.996C315.352 25.364 316.036 26.468 316.948 27.308C317.884 28.148 319.12 28.568 320.656 28.568C321.496 28.568 322.24 28.424 322.888 28.136C323.56 27.824 324.1 27.368 324.508 26.768C324.916 26.168 325.12 25.424 325.12 24.536C325.12 23.528 324.88 22.652 324.4 21.908C323.944 21.164 323.308 20.468 322.492 19.82C321.7 19.172 320.776 18.512 319.72 17.84C318.592 17.096 317.536 16.352 316.552 15.608C315.568 14.864 314.776 14.012 314.176 13.052C313.6 12.092 313.312 10.952 313.312 9.63201C313.312 8.12001 313.684 6.88401 314.428 5.92401C315.196 4.94001 316.192 4.22001 317.416 3.76401C318.664 3.28401 319.984 3.04401 321.376 3.04401Z" fill="#E0E0E0"/>
<path d="M337.72 1.10001C338.728 1.10001 339.52 1.35201 340.096 1.85601C340.696 2.33601 340.996 3.00801 340.996 3.87201C340.996 4.73601 340.696 5.42001 340.096 5.92401C339.52 6.40401 338.728 6.64401 337.72 6.64401C336.712 6.64401 335.908 6.40401 335.308 5.92401C334.732 5.42001 334.444 4.73601 334.444 3.87201C334.444 3.00801 334.732 2.33601 335.308 1.85601C335.908 1.35201 336.712 1.10001 337.72 1.10001ZM340.528 9.99201V25.652C340.528 26.66 340.696 27.344 341.032 27.704C341.392 28.064 341.992 28.244 342.832 28.244V29C342.4 28.976 341.728 28.952 340.816 28.928C339.904 28.88 338.98 28.856 338.044 28.856C337.108 28.856 336.16 28.88 335.2 28.928C334.24 28.952 333.52 28.976 333.04 29V28.244C333.88 28.244 334.468 28.064 334.804 27.704C335.164 27.344 335.344 26.66 335.344 25.652V14.312C335.344 13.232 335.176 12.44 334.84 11.936C334.528 11.408 333.928 11.144 333.04 11.144V10.388C333.808 10.46 334.552 10.496 335.272 10.496C336.28 10.496 337.216 10.46 338.08 10.388C338.968 10.292 339.784 10.16 340.528 9.99201Z" fill="#E0E0E0"/>
<path d="M351.739 0.812012V25.652C351.739 26.66 351.907 27.344 352.243 27.704C352.603 28.064 353.203 28.244 354.043 28.244V29C353.587 28.976 352.903 28.952 351.991 28.928C351.079 28.88 350.155 28.856 349.219 28.856C348.283 28.856 347.335 28.88 346.375 28.928C345.439 28.952 344.731 28.976 344.251 29V28.244C345.091 28.244 345.679 28.064 346.015 27.704C346.375 27.344 346.555 26.66 346.555 25.652V5.13201C346.555 4.05201 346.387 3.26001 346.051 2.75601C345.739 2.22801 345.139 1.96401 344.251 1.96401V1.20801C345.019 1.28001 345.763 1.31601 346.483 1.31601C347.467 1.31601 348.403 1.28001 349.291 1.20801C350.179 1.11201 350.995 0.980012 351.739 0.812012Z" fill="#E0E0E0"/>
<path d="M372.963 10.388V11.108C372.507 11.228 372.075 11.516 371.667 11.972C371.259 12.404 370.863 13.148 370.479 14.204L365.223 29.072C364.839 29.048 364.443 29.036 364.035 29.036C363.651 29.036 363.267 29.048 362.883 29.072L356.475 13.16C356.091 12.224 355.707 11.66 355.323 11.468C354.963 11.252 354.651 11.144 354.387 11.144V10.388C355.155 10.436 355.947 10.484 356.763 10.532C357.603 10.556 358.515 10.568 359.499 10.568C360.243 10.568 361.023 10.556 361.839 10.532C362.679 10.484 363.459 10.436 364.179 10.388V11.144C363.675 11.144 363.219 11.168 362.811 11.216C362.427 11.264 362.163 11.42 362.019 11.684C361.875 11.948 361.899 12.416 362.091 13.088L366.303 24.248L365.943 24.752L368.787 16.868C369.243 15.572 369.435 14.516 369.363 13.7C369.291 12.86 369.027 12.236 368.571 11.828C368.115 11.396 367.503 11.156 366.735 11.108V10.388C367.095 10.412 367.479 10.436 367.887 10.46C368.319 10.46 368.727 10.472 369.111 10.496C369.519 10.496 369.879 10.496 370.191 10.496C370.671 10.496 371.175 10.484 371.703 10.46C372.231 10.436 372.651 10.412 372.963 10.388Z" fill="#E0E0E0"/>
<path d="M378.402 29.252C377.322 29.252 376.422 29.048 375.702 28.64C374.982 28.232 374.454 27.692 374.118 27.02C373.782 26.324 373.614 25.568 373.614 24.752C373.614 23.72 373.842 22.88 374.298 22.232C374.778 21.584 375.39 21.056 376.134 20.648C376.878 20.24 377.658 19.904 378.474 19.64C379.314 19.376 380.106 19.124 380.85 18.884C381.618 18.62 382.23 18.32 382.686 17.984C383.166 17.624 383.406 17.168 383.406 16.616V13.808C383.406 13.184 383.298 12.632 383.082 12.152C382.89 11.648 382.578 11.264 382.146 11C381.738 10.736 381.198 10.604 380.526 10.604C380.046 10.604 379.566 10.676 379.086 10.82C378.606 10.94 378.21 11.156 377.898 11.468C378.57 11.708 379.086 12.08 379.446 12.584C379.83 13.064 380.022 13.616 380.022 14.24C380.022 15.056 379.734 15.704 379.158 16.184C378.606 16.664 377.946 16.904 377.178 16.904C376.314 16.904 375.654 16.64 375.198 16.112C374.766 15.56 374.55 14.9 374.55 14.132C374.55 13.436 374.718 12.86 375.054 12.404C375.414 11.948 375.906 11.516 376.53 11.108C377.202 10.724 378.006 10.424 378.942 10.208C379.902 9.99201 380.934 9.88401 382.038 9.88401C383.142 9.88401 384.138 10.004 385.026 10.244C385.914 10.46 386.658 10.868 387.258 11.468C387.81 12.02 388.17 12.704 388.338 13.52C388.506 14.312 388.59 15.32 388.59 16.544V26.336C388.59 26.936 388.65 27.356 388.77 27.596C388.89 27.812 389.094 27.92 389.382 27.92C389.598 27.92 389.802 27.86 389.994 27.74C390.21 27.62 390.438 27.476 390.678 27.308L391.038 27.92C390.534 28.352 389.946 28.688 389.274 28.928C388.626 29.144 387.894 29.252 387.078 29.252C386.19 29.252 385.482 29.132 384.954 28.892C384.426 28.628 384.042 28.28 383.802 27.848C383.586 27.416 383.478 26.912 383.478 26.336C382.902 27.248 382.206 27.968 381.39 28.496C380.574 29 379.578 29.252 378.402 29.252ZM380.958 26.948C381.438 26.948 381.87 26.84 382.254 26.624C382.662 26.384 383.046 26 383.406 25.472V18.092C383.19 18.452 382.89 18.776 382.506 19.064C382.122 19.352 381.714 19.652 381.282 19.964C380.85 20.252 380.43 20.576 380.022 20.936C379.638 21.296 379.326 21.74 379.086 22.268C378.846 22.796 378.726 23.432 378.726 24.176C378.726 25.112 378.93 25.808 379.338 26.264C379.746 26.72 380.286 26.948 380.958 26.948Z" fill="#E0E0E0"/>
</svg>
